<?xml version="1.0" encoding="utf-8"?>
<!-- Generator: Adobe Illustrator 23.0.1, SVG Export Plug-In . SVG Version: 6.00 Build 0)  -->
<svg version="1.1" id="Calque_1" xmlns="http://www.w3.org/2000/svg" xmlns:xlink="http://www.w3.org/1999/xlink" x="0px" y="0px"
	 viewBox="0 0 422.6 348.7" style="enable-background:new 0 0 422.6 348.7;" xml:space="preserve">
<style type="text/css">
	.st0{fill:url(#SVGID_1_);}
	.st1{clip-path:url(#SVGID_3_);}
	.st2{fill:#FF2A30;}
	.st3{fill:#41271C;}
	.st4{fill:#382117;}
	.st5{fill:#E7CEC0;}
	.st6{fill:#23130D;}
	.st7{fill:#FFFFFF;}
	.st8{fill:#C19F8E;}
	.st9{fill:none;stroke:#C19F8E;stroke-width:1.177;stroke-miterlimit:10;}
	.st10{fill:#CC0212;}
	.st11{fill:url(#SVGID_4_);}
	.st12{fill:#740B00;}
	.st13{fill:url(#SVGID_5_);}
	.st14{fill:url(#SVGID_6_);}
	.st15{fill:url(#SVGID_7_);}
	.st16{fill:#202020;}
	.st17{fill:url(#SVGID_8_);}
	.st18{opacity:0.75;fill:#FF2A30;enable-background:new    ;}
	.st19{fill:#F2F2F2;}
	.st20{fill:url(#SVGID_9_);}
	.st21{fill:#FFDCCA;}
</style>
<g>
	<g>
		
			<radialGradient id="SVGID_1_" cx="212.6812" cy="171.1021" r="27.3383" gradientTransform="matrix(0.9863 -8.849256e-03 8.849256e-03 -0.9943 1.4684 347.9586)" gradientUnits="userSpaceOnUse">
			<stop  offset="0" style="stop-color:#808080"/>
			<stop  offset="2.175283e-02" style="stop-color:#878787"/>
			<stop  offset="0.1569" style="stop-color:#ABABAB"/>
			<stop  offset="0.2989" style="stop-color:#CACACA"/>
			<stop  offset="0.4474" style="stop-color:#E1E1E1"/>
			<stop  offset="0.6054" style="stop-color:#F2F2F2"/>
			<stop  offset="0.7793" style="stop-color:#FCFCFC"/>
			<stop  offset="1" style="stop-color:#FFFFFF"/>
		</radialGradient>
		<path class="st0" d="M193.1,163.2c-9.1,14.1-7.7,31.2,3.1,38.3c10.8,7,27,1.3,36.2-12.8c9.1-14.1,7.7-31.2-3.1-38.3
			C218.4,143.4,202.2,149.1,193.1,163.2z"/>
	</g>
</g>
<title>Fichier 1</title>
<g>
	<g>
		<defs>
			<rect id="SVGID_2_" x="2.5" width="419.3" height="141.6"/>
		</defs>
		<clipPath id="SVGID_3_">
			<use xlink:href="#SVGID_2_"  style="overflow:visible;"/>
		</clipPath>
		<g class="st1">
			<path class="st2" d="M318.5,23.5l6-20.1c0,0-0.2-2.5,3.4,0.3s1.8,6.5,0.8,10c-1.1,3.5-13.5,12.3-14.3,16.7s-4.5,2.4-2.9,8.1
				s-2.8,12.4,2.2,6.8s9.9-19.3,9.7-19.7"/>
			<path class="st3" d="M413,99.7c0,0,3.4,2.4,4.1,3.6c0.8,1.1,1.8,2.1,0,2.4c-1.8,0.4-5.6-3.3-5.6-3.3s4.7,5,5.4,5.6
				c0.8,0.6-7.7-3.9-7.5-5.6s-2-8.3-2-8.3s7.5,3.9,11.2,6.7c3.8,2.8-1.2,1.1-3.4,0"/>
			<path class="st4" d="M370.4,180.4L370.4,180.4c0.2-0.2,14.5-18.5,14.5-22.4c0-0.9,0.1-2.2,0.3-3.7c0.6-5.6,1.6-14-2.3-18.7
				c-1.5-1.8-2.3-3.8-2.2-6c0-3.3,1.8-6,2.2-6.5c-5.1-4.8-35.5-5.9-35.8-5.9H347v-0.1c-0.5-2.2-11.6-54.7-6.9-60.5
				c0.3-0.4,0.6-0.5,1-0.5c0.3,0,0.7,0,1,0c0.5,0,1.1,0,1.7-0.1c1.4,0,2.9-0.1,4.6-0.1c8.4,0,20.2,1.3,24.7,12.2
				c4.6,11.2,16.9,17.1,26.8,21.8l2.3,1.1c1.8,0.9,3.9,1.9,5.8,3c5.1,2.9,7.9,5.8,8.6,8.6c0.4,1.7-0.2,3-0.6,3.6
				c-0.6,0.9,0,4.7,0.9,11.1c0.5,3.6,1.2,8.1,1.9,13.5l0.2,1.8c2.2,18.2-10.1,32.9-11.5,34.5c-1.3,1.5-5.4,7-12.2,16.2
				c-6.4,8.7-12.9,17.7-12.9,17.7l-0.1,0.1L370.4,180.4z"/>
			<path class="st3" d="M299.6,302.7c-8.6,0-15.9-1.4-22.5-4.3c-6.3-2.8-11.9-7.1-16.6-12.8c-0.6-0.8-1.3-1.6-1.9-2.4
				c-0.7-1-1.4-1.9-2.1-2.9c-21.3-30.8-16.8-63.6-14.6-79.3c0.3-2,0.5-3.7,0.7-5.2c1.2-11.6,13.8-35.8,22.1-51.8
				c1.7-3.3,3.2-6.2,4.4-8.6c2.6-5.1,4-13.4,5.6-22.9c2.1-12.2,4.4-26.1,10-37.1c1.7-3.3,3.5-6.1,5.6-8.6c0.3-0.3,0.5-0.6,0.8-0.9
				c8.2-9,17.8-13.3,29.3-13.3c3,0,5.6,0.3,7.7,0.5c1.4,0.2,2.6,0.3,3.5,0.3c5.4,0,21.4,6.5,26.2,16.9c1,2.2,1.5,4.4,1.4,6.7
				c-0.2,5.8-0.9,10.8-1.5,15.6c-1,7.3-1.9,14.2-1,22.3c1.5,13.1,6.4,34.1,11.5,48.9c2.4,6.9,8.2,21,13.8,34.6
				c5.4,13,10.4,25.3,11.8,29.6c0.2,0.6,0.3,1,0.3,1.2c0.1,0.3,6.2,29.2-5.6,46.9c-4.7,7-11.5,11.4-20.4,13.1
				c-7.6,1.4-15.3,3.4-23.4,5.5C329.6,298.7,314,302.7,299.6,302.7L299.6,302.7z"/>
			<path class="st5" d="M334.9,274.1c-7.5,0-13.7-2.7-19.2-8.2c-0.9-0.9-1.7-1.9-2.6-2.9c-16.5-20.5-16.4-44.6-16.4-56.1
				c0-1.4,0-2.6,0-3.7c-0.2-8.2,5.2-25.9,8.8-37.6c0.7-2.4,1.4-4.5,1.9-6.3c0.8-2.8,1.1-6.9,1.3-10.5c0.1-1.8,0.1-3.8,0.2-5.8
				c0.3-9.5,0.6-20.3,3.7-28.6c0.7-1.8,1.4-3.4,2.3-4.8c6.1-10.1,13.7-11.4,19.7-11.4c0.4,0,2,0,2,0c0.5,0,0.9,0,1.2,0
				c0.1,0,0.3,0,0.5,0h0.2c3.6,0.1,11.8,3.2,15.6,9.1c1.1,1.7,1.8,3.6,1.9,5.6c0.3,4,0.3,7.6,0.4,11c0,2.3,0,4.4,0.1,6.6
				c0.2,3.3,0.5,6.1,1.1,8.9c1.9,9,6.5,23.3,10.6,33.3c2,4.7,6.5,14.1,10.9,23.2c4.7,9.7,9.1,18.9,9.6,20.6c0.1,0.2,6.2,20.8,0,33.9
				c-2.2,4.7-5.8,8-10.6,9.6c-4.3,1.5-8.7,3.4-13.3,5.4C354.9,269.6,344.6,274.1,334.9,274.1L334.9,274.1z"/>
			<path class="st6" d="M302.7,337.8c-2.8,0-4.4-0.1-5.1-0.3c-3.9-1.3-7-3.1-4.6-11.3c0.5-1.6,0.9-2.9,1.3-4
				c1.7-4.8,2.4-6.6-2.2-18.8c-5.2-13.9-3.2-15.9,2.3-21.2c0.5-0.5,1-1,1.6-1.5c1.8-1.8,4.9-2.6,9.7-2.6c5.1,0,11.1,1,15.8,1.8
				c3.1,0.5,5.8,1,7.3,1c0.5,0,0.9-0.1,1.1-0.2c2.5-1.5,52.3-2.6,54.4-2.6h0.3l-0.3,0.2c-0.3,0.2-25.5,20.6-31.4,26
				c-2.5,2.3-6.5,4.2-10,5.8c-4,1.9-7.4,3.5-7.8,5.2c-0.1,0.5,0,0.9,0.3,1.3c1.6,2.2,7.1,2.7,12.5,3.2c4.4,0.4,9,0.9,11.4,2.2
				c4.2,2.3,8,7.5,7.5,10.4c-0.2,1-0.9,1.7-2.1,1.8c-0.2,0-19,3.2-27,3.2c-1.1,0-1.9-0.1-2.5-0.2c-0.9-0.2-2.6-0.3-5.2-0.3
				c-3.8,0-9,0.2-14.1,0.4C311.3,337.7,306.2,337.8,302.7,337.8z"/>
			<path class="st3" d="M417.6,96.6"/>
			<path class="st7" d="M379.3,247.4c-0.8,0-1.6-0.7-2.2-2c-2.4-4.5-1.8-9.5,0-12c0.2-0.2,0.4-0.4,0.6-0.4c1.8,0,3.8,11.1,4,12.3
				C381.6,245.5,380.6,247.4,379.3,247.4L379.3,247.4z"/>
			<path class="st7" d="M374.2,246.8c-0.8,0-1.6-0.7-2.2-2c-2.4-4.5-1.8-9.5,0-12c0.2-0.2,0.4-0.4,0.6-0.4c1.8,0,3.8,11.1,4,12.3
				C376.5,245,375.6,246.8,374.2,246.8L374.2,246.8z"/>
			<path class="st7" d="M369.9,246.1c-0.7,0-1.5-0.6-2.3-1.7c-2.9-4.1-3-9.2-1.6-11.9c0.2-0.3,0.4-0.4,0.6-0.4
				c1.8,0,5.1,10.5,5.5,11.7C372.1,244,371.3,246.1,369.9,246.1L369.9,246.1z"/>
			<path class="st7" d="M364.1,246.3c-0.8,0-1.6-0.7-2.2-2c-2.4-4.5-1.8-9.5,0-12c0.2-0.2,0.4-0.4,0.6-0.4c1.8,0,3.8,11.1,4,12.3
				C366.4,244.4,365.4,246.3,364.1,246.3L364.1,246.3z"/>
			<path class="st3" d="M302.3,306.5c-15.7,0-24.5-4-25.6-11.7c0.1-0.2,6-14.5,6.8-16.6c3.5-10.1,8.1-26.7,8.1-26.9
				c0.1-0.1,5.2-4.8,13.8-7.6c4.3-1.4,8.8-2.1,13.3-2.1c12.9,0,25.9,5.7,38.6,17.1c1.6,1.3,2.9,1.9,3.7,1.9c0.4,0,0.6-0.1,0.9-0.4
				c1-1.2,0.4-4.8-0.2-8.6c-0.8-4.7-1.5-9.5,0.1-11.5c0.5-0.6,1.1-0.8,2-0.8c0.2,0,0.5,0,0.7,0.1c1.6,0.3,3.1,0.4,4.5,0.6
				c7.2,0.8,12.4,1.4,16.7,12.7c1,2.7,2.2,5.6,3.5,8.6c2.7,6.5,5.5,13.2,6.9,19.1c1.5,6.1,1.4,10.4-0.5,12.9c-1.5,2-3.4,3.2-5.9,3.7
				c-0.9,0.2-1.9,0.3-3,0.3c-3.1,0-6.7-0.8-10.4-1.6c-2.5-0.5-5.1-1.1-7.6-1.4c-0.9-0.1-1.9-0.2-2.9-0.2c-5.9,0-12.4,2.1-19.9,4.5
				c-6.6,2.1-14.1,4.5-22.5,5.9c-1.3,0.2-2.6,0.4-3.9,0.6C313.2,306.1,307.5,306.5,302.3,306.5L302.3,306.5z"/>
			<path class="st5" d="M384.9,290.7c-3.6,0-7.1-3.3-9.6-5.7c-0.6-0.6-1.2-1.1-1.6-1.5c-2.6-2.3-2.4-15.7-2.4-16.3
				c0-0.1-2.7-15.4-4.5-20c-0.4-1-0.4-1.8,0-2.3c0.5-0.7,1.5-1,2.9-1c2.2,0,5.2,0.8,7.4,2.1c4.4,2.5,5.1,6.4,5.1,6.4
				c0.1,0.1,6.6,16.5,8.2,21.6c0.5,1.7,1.1,3.1,1.6,4.3c1.1,2.8,1.9,4.9,1.7,7.8C393.2,290.4,389.3,290.7,384.9,290.7z"/>
			<path class="st7" d="M354.7,335.8c-0.1,0-1.9-1-2-2.3c0-0.8,0.6-1.6,2-2.3c1.9-1,4.1-1.6,6.3-1.6c2.2,0,4.3,0.6,5.7,1.6
				c0.3,0.2,0.4,0.4,0.4,0.7C366.7,333.7,356,335.6,354.7,335.8L354.7,335.8L354.7,335.8z"/>
			<path class="st7" d="M357.5,332.4c-0.1,0-1.9-1-2-2.3c0-0.8,0.6-1.6,2-2.3c1.9-1,4.1-1.6,6.3-1.6c2.2,0,4.3,0.6,5.7,1.6
				c0.3,0.2,0.4,0.4,0.4,0.7C369.5,330.3,358.8,332.2,357.5,332.4L357.5,332.4L357.5,332.4z"/>
			<path class="st7" d="M358.1,330.7c-0.1,0-1.9-1-2-2.3c0-0.8,0.6-1.6,2-2.3c1.9-1,4.1-1.6,6.3-1.6c2.2,0,4.3,0.6,5.7,1.6
				c0.3,0.2,0.4,0.4,0.4,0.7C370.1,328.6,359.4,330.5,358.1,330.7L358.1,330.7L358.1,330.7z"/>
			<path class="st7" d="M358.1,327.9c-0.1,0-1.9-1-2-2.3c0-0.8,0.6-1.6,2-2.3c1.9-1,4.1-1.6,6.3-1.6c2.2,0,4.3,0.6,5.7,1.6
				c0.3,0.2,0.4,0.4,0.4,0.7C370.1,325.8,359.4,327.7,358.1,327.9L358.1,327.9L358.1,327.9z"/>
			<path class="st8" d="M365.7,221.2c-1.7,0-3-1.4-3-3c0-1.7,1.4-3,3-3c1.7,0,3,1.4,3,3C368.7,219.9,367.4,221.2,365.7,221.2z"/>
			<path class="st9" d="M323.5,192.8l-0.1-0.2c0.1,0,8.4-3.6,17.9-5.7c8.8-2,20.5-3.2,26.2,2.4l-0.2,0.2
				C356.6,178.9,323.8,192.7,323.5,192.8z"/>
			<path class="st9" d="M329.2,184.1l-0.1-0.2c0.1,0,6.4-2.7,13.8-4.4c6.8-1.5,15.8-2.5,20.2,1.8l-0.2,0.2
				C354.6,173.3,329.4,183.9,329.2,184.1z"/>
			<path class="st10" d="M68,149.4c-11.4,2.6-23.4-2.2-29.8-12L10.9,93.9l0.1,0c24.2-16.6,52.4-28.4,86-36.2
				c23.9-5.5,45.6-7.9,63.1-9.7c5.5-0.6,10.8-1.2,15.2-1.8l0.3-0.1l-0.2,0.3c-6.7,6.9-11.8,22.3-16.7,37.2
				c-6.2,19.1-12.6,38.7-22.8,41.1c0,0-0.2,0-0.3,0.1c-2.7,0.5-5.2,1.1-7.8,1.7c-19.1,4.4-36.5,11.1-52,19.9
				C73.4,147.7,70.8,148.7,68,149.4z"/>
			<path class="st2" d="M337,89c-7.6,0-15.5-6.3-24.5-13.6c-13.5-10.9-30.4-24.5-54.8-24.5c-0.8,0-1.6,0-2.4,0
				c-6.8,0.2-15.4,0.4-26.3,0.4c-12,0-24.9-0.1-36.3-0.3c-5.6-0.1-10.8-0.3-15.4,0.7c-2.2,0.5-4.8,3.1-6.5,5
				c-1.9,2.1-4.3,3.5-7.2,4.1c-0.4,0.1-0.8,0.2-1.2,0.3c-10.2,1.5-19.7,3.3-28.8,5.4C97,74.9,63.3,89.3,30.7,110.4
				c-1,0.6-2,1.1-3.2,1.3c-4.1,0.9-8.4-0.8-10.6-4.3L7.6,92.8l0.1,0c0.6-0.4,58-49.2,129.3-70.9c4.2-1.3,8.9-2.6,14.2-3.8
				c13.4-3.1,37.3-4.9,52.1-4c14.9,0.9,29,1.8,41.6,1.8c1.2,0,2.3,0,3.5,0c1.5,0,3,0,4.5,0c49.8,0,68.2,12.7,86.1,25
				c3,2,6.1,4.2,9.2,6.2c7.8,5,12,12.3,11.4,20.2c-0.6,8.5-6.9,16.2-16.8,20.6C340.9,88.6,339,89,337,89L337,89z"/>
			<g>
				<linearGradient id="SVGID_4_" gradientUnits="userSpaceOnUse" x1="340.1119" y1="7.8188" x2="327.1817" y2="74.4233">
					<stop  offset="0" style="stop-color:#41271C"/>
					<stop  offset="0.562" style="stop-color:#3F251A"/>
					<stop  offset="0.7643" style="stop-color:#381E15"/>
					<stop  offset="0.9081" style="stop-color:#2D130B"/>
					<stop  offset="1" style="stop-color:#200600"/>
				</linearGradient>
				<path class="st11" d="M331.3,70c-0.2-0.1-9.1-6.7-11.3-6.7c-1.3,0-2.6-1.2-4.5-2.8c-1.5-1.3-3.4-2.9-5.9-4.5
					c-5.6-3.5-9.5-23.2-9.6-30.5c0-1.1,0.2-1.9,0.8-2.5c0.6-0.6,1.6-1,2.9-1c3.9,0,9.8,2.9,10.5,3.3l0.8-0.7
					c-0.4-0.7-0.4-0.7-0.4-0.8v-0.1h0.1c0.1,0,0.1,0,0.2,0.1s0.3,0.3,0.4,0.3c0,0,0,0,0-0.1c0-0.5,0.7-0.7,1.5-0.9l1.1-1l-0.1-0.1
					c-0.9-0.6-2-0.8-3.3-1s-2.9-0.5-4.2-1.3c-1-0.6-1.1-0.9-1.1-1.1c0.1-0.2,0.4-0.3,0.7-0.3c0.6,0,1.7,0.2,2.5,0.4
					c1,0.2,3.4,0.5,5.1,0.5c1.6,0,1.8-0.2,1.8-0.2c-0.1-0.1-0.6-0.4-1.1-0.7c-1.1-0.6-2.5-1.5-3-2.6c-0.1-0.2-0.1-0.4,0-0.5
					c0.1-0.2,0.4-0.3,0.9-0.3c1.5,0,4.6,0.9,6.7,1.5c0.5,0.1,0.9,0.3,1.3,0.4c0.3,0.1,0.6,0.2,0.8,0.4l1.1-0.7c1-0.8,3-2.4,4.3-4.1
					c1.9-2.3,11.1-3,11.4-3c0,0,5.3-0.8,8.2-1.5c0.3-0.1,0.6-0.1,0.8-0.1c0.3,0,0.5,0.1,0.6,0.3c0.3,0.6-1.1,2-1.4,2.3l-5.7,3.2
					c0.6,0.5,1.3,1.1,2.2,1.8l0.7,0.6l0.2-0.1l0.5-0.2c4.2-1.5,7.3-2.3,9.1-2.3c0.5,0,1,0.1,1.2,0.2c0.3,0.2,0.4,0.4,0.4,0.6
					c0,0.8-1.3,1.7-2.5,1.7c-1,0-3,0.9-5.9,2.5c0.8,0.6,1.6,1.3,2.6,2c1.6,0.1,3.2,0.4,4.9,0.9c4.9,1.5,7.9,3.4,8.1,5
					c0,0.4-0.1,0.9-0.9,1.3c-0.3,0.1-0.6,0.2-1.1,0.2c-0.6,0-1.5-0.1-2.5-0.4c0.2,0.2,0.3,0.5,0.4,0.7c5.2,3.1,9.5,10.6,9.1,11.7
					c0,0.1-0.1,0.2-0.2,0.2l0,0c-0.1,0-0.4,0-1.3-1.1c-1.6-1.9-5.1-4.1-10.1-6.3c-0.3-0.1-0.7-0.2-1.1-0.4s-0.7-0.4-1.1-0.5
					l-0.2-0.1c-1.2-0.5-2.2-0.9-3.1-1.2v0.2c-0.1,0.4-0.2,0.8-0.4,1.5c-1,3.4,5,17.6,5,17.7L348.1,70H331.3z"/>
				<path class="st5" d="M340.9,87c-1.6,0-3.7-3-6.6-7.8c-0.5-0.8-1-1.6-1.4-2.5l-1-1.8c-1.7-2.9-3.5-5.9-5.2-8.1
					c-1.2-1.5-2.3-2.5-3.3-3.1c-1.3-0.7-2-1.5-2.2-2.5c-0.4-1.9,1.4-4,3.2-6.3c1.2-1.4,2.4-2.9,3.1-4.3c0.9-1.9,3.4-3,6.7-3
					c3.2,0,6.9,1.1,6.9,2.6c0,0.1,0,0.2,0.1,0.3s0.2,0.1,0.4,0.1c1.3,0,4.5-1.5,8-3.1l1.1-0.5c2.3-1.1,4.9-2.3,6.9-2.9
					c0.6-0.2,1.3-0.3,2.1-0.3c0.9,0,1.9,0.1,3.1,0.3c1.7,0.3,3.7,0.8,5.9,1.6c4.2,1.4,8.2,3.1,10.2,4c0.6,0.3,1,0.4,1,0.4h0.1v0.1
					c0,0-2.7,6.4-4.8,11.1l-1,2.3c-0.3,0.6-0.6,1.1-1,1.5c-0.5,0.5-1.1,0.9-1.8,1.2c-0.8,0.3-1.7,0.5-2.6,0.5c-0.4,0-0.8,0-1.2-0.1
					c-0.7-0.1-1.1-0.2-1.1-0.2l-8.2,1.8l-9.1,2c0.4,0.6,2.2,3.2,3.5,5.7c1.4,2.7,2.1,4.6,1.9,5.7C353.9,85.1,344.8,87,340.9,87z"/>
				<path class="st12" d="M370.2,63.8c-0.8,0-1.5-0.6-1.9-1.8c-1.1-3.2-3.9-4.1-6.2-4.8c-1.6-0.5-3-0.9-3.5-2.1
					c-0.4-1.1,0.1-2.6,1.6-4.9c2.9-4.6,8.7-6.2,13.1-6.2c3.8,0,6.9,1.2,7.9,2.9c0.6,1,0.5,2.2-0.2,3.4
					C380.7,50.9,374,63.8,370.2,63.8z"/>
				<path class="st12" d="M342.9,83.3c-3.3,0-4.9-2.1-6.5-5.6c-1.9-4.1-6.3-21.9-6.4-22l0.2-0.1c8.9,17.7,18.3,18.4,18.4,18.4h0.1
					v0.1c0.6,2.8,1.1,4.5,1.5,5.6c0.3,1,0.5,1.5,0.3,1.8s-0.5,0.3-1.3,0.5c-0.6,0.1-1.6,0.3-2.8,0.8C345.1,83.1,344,83.3,342.9,83.3
					L342.9,83.3z"/>
				<path class="st5" d="M342.7,46.6c-1.9,0-3.5-2.6-3.5-5.8s1.6-5.8,3.5-5.8s3.5,2.6,3.5,5.8S344.7,46.6,342.7,46.6z"/>
				<path class="st5" d="M349.4,44.9c-1,0-1.7-2.7-1.7-5.3s0.6-5.3,1.7-5.3c1,0,1.7,2.7,1.7,5.3S350.4,44.9,349.4,44.9z"/>
				
					<linearGradient id="SVGID_5_" gradientUnits="userSpaceOnUse" x1="330.274" y1="307.3838" x2="342.9961" y2="303.6489" gradientTransform="matrix(1 0 0 -1 0 347)">
					<stop  offset="0" style="stop-color:#FFFFFF"/>
					<stop  offset="1" style="stop-color:#000000"/>
				</linearGradient>
				<path class="st13" d="M341.8,45.2c-0.6,0-1.1-1-1.1-2.2c0-1.3,0.5-2.2,1.1-2.2s1.1,1,1.1,2.2S342.4,45.2,341.8,45.2z"/>
				
					<linearGradient id="SVGID_6_" gradientUnits="userSpaceOnUse" x1="337.6001" y1="309.076" x2="350.3275" y2="305.3396" gradientTransform="matrix(1 0 0 -1 0 347)">
					<stop  offset="0" style="stop-color:#FFFFFF"/>
					<stop  offset="1" style="stop-color:#000000"/>
				</linearGradient>
				<path class="st14" d="M349.1,43.5c-0.6,0-1.1-1-1.1-2.2c0-1.3,0.5-2.2,1.1-2.2s1.1,1,1.1,2.2S349.7,43.5,349.1,43.5z"/>
				<g>
					
						<linearGradient id="SVGID_7_" gradientUnits="userSpaceOnUse" x1="319.7509" y1="318.6594" x2="342.2327" y2="312.0592" gradientTransform="matrix(1 0 0 -1 0 347)">
						<stop  offset="0" style="stop-color:#FFFFFF"/>
						<stop  offset="1" style="stop-color:#000000"/>
					</linearGradient>
					<path class="st15" d="M337.2,36.8l-0.2-0.1c0,0,2.8-3.6,5.9-4.9L343,32C339.9,33.3,337.2,36.8,337.2,36.8z"/>
					<g>
						<g>
							<g>
								<g>
									<path class="st16" d="M336.6,36.3c0.1,0.1,0.3,0.2,0.2,0.2L336.6,36.3L336.6,36.3z"/>
									<path class="st16" d="M337.3,36.6c-0.1-0.1-0.4-0.4-0.7-0.6c0.3,0.3,0.1,0.2,0.5,0.5c0,0-0.1,0-0.2-0.1
										c0.1,0.1-0.1,0,0.1,0.1c0.3,0.2,0.3,0.1,0.1,0C337.1,36.5,337.2,36.6,337.3,36.6z"/>
									<path class="st16" d="M339.2,35.4L339.2,35.4L339.2,35.4z"/>
									<path class="st16" d="M340.3,34.6C340.3,34.7,340.3,34.7,340.3,34.6C340.3,34.7,340.3,34.7,340.3,34.6z"/>
									<path class="st16" d="M340.8,34.8C340.7,34.8,340.7,34.8,340.8,34.8C340.8,34.8,340.8,34.9,340.8,34.8z"/>
									<path class="st16" d="M339.2,35.4l0.1,0.1C339.2,35.4,339.2,35.4,339.2,35.4z"/>
									<path class="st16" d="M336.7,35.8C336.7,35.8,336.8,35.9,336.7,35.8C336.8,35.9,336.8,35.9,336.7,35.8L336.7,35.8z"/>
									<path class="st16" d="M339,36.1L339,36.1l0.1,0.1L339,36.1z"/>
									<path class="st16" d="M338.7,36.4c0,0-0.2-0.2-0.3-0.3C338.5,36.2,338.5,36.2,338.7,36.4C338.6,36.3,338.7,36.4,338.7,36.4
										z"/>
									<path class="st16" d="M337.8,36.6L337.8,36.6L337.8,36.6z"/>
									<path class="st16" d="M339.3,35.9L339.3,35.9L339.3,35.9z"/>
									<path class="st16" d="M338.4,37.4L338.4,37.4L338.4,37.4z"/>
									<polygon class="st16" points="337.2,36.9 337.1,36.9 337,37 									"/>
									<path class="st16" d="M341.3,34.9L341.3,34.9L341.3,34.9z"/>
									<path class="st16" d="M341.7,30.8c0.2,0.2,0.1,0.4,0.3,0.6C342,31.3,341.9,30.9,341.7,30.8z"/>
									<path class="st16" d="M336.8,35.8L336.8,35.8L336.8,35.8z"/>
									<polygon class="st16" points="342,31.4 342,31.4 342.1,31.5 									"/>
									<path class="st16" d="M341.9,34.2l-0.1-0.1C341.9,34.1,341.9,34.2,341.9,34.2z"/>
									<path class="st16" d="M341.1,34.2L341.1,34.2L341.1,34.2z"/>
									<path class="st16" d="M342,33.6C342,33.6,342,33.7,342,33.6L342,33.6C342,33.6,342,33.7,342,33.6z"/>
									<path class="st16" d="M342.3,33.4C342.3,33.4,342.2,33.4,342.3,33.4L342.3,33.4L342.3,33.4z"/>
									<path class="st16" d="M339,36.4c-0.1-0.1-0.2-0.1-0.2-0.2C339,36.4,339,36.5,339,36.4z"/>
									<path class="st16" d="M336.9,35.9c-0.1-0.1-0.1-0.1-0.1-0.1C336.8,35.8,336.8,35.8,336.9,35.9
										C336.8,35.9,336.8,35.9,336.9,35.9z"/>
									<path class="st16" d="M340.5,31.4L340.5,31.4C340.6,31.4,340.6,31.4,340.5,31.4z"/>
									<path class="st16" d="M341,34.6L341,34.6L341,34.6z"/>
									<path class="st16" d="M340.8,31.3c0.1,0.1,0.1,0.1,0.2,0.2c0,0,0,0,0-0.1L340.8,31.3z"/>
									<path class="st16" d="M338.8,36.3L338.8,36.3L338.8,36.3z"/>
									<path class="st16" d="M339.1,37.1c0,0-0.3-0.3-0.5-0.5c0-0.1,0.3,0.2,0.4,0.3c-0.1-0.1-0.3-0.4-0.3-0.4
										c0.1,0,0.1,0.1,0.1,0.1c-0.2-0.3,0.1-0.1-0.2-0.4c0,0,0.1,0,0.1,0.1c-0.2-0.1-0.3-0.3-0.4-0.4c0,0-0.2-0.2,0,0
										c0,0,0.1,0.1,0.1,0.2l-0.1-0.1c0.3,0.3,0.1,0.1,0.3,0.3c-0.1-0.1-0.3-0.4-0.2-0.4c0.3,0.3,0,0.2,0.3,0.4l-0.2-0.1
										c0.5,0.4-0.1,0,0.5,0.4c0.1,0-0.1-0.2,0.1-0.2c-0.1-0.2-0.2-0.2-0.4-0.4c-0.2-0.4,0.8,0.6,0.5,0.2
										c-0.2-0.2-0.5-0.6-0.3-0.4l0.3,0.3c0.1,0-0.4-0.5-0.2-0.3c0.1,0.1,0.1,0.1,0.1,0.2c0.3,0.2-0.2-0.2-0.1-0.2l0.3,0.3
										c0-0.1-0.1-0.4-0.1-0.5c0.1,0.1,0.2,0.2,0.3,0.3c-0.1-0.2,0.2-0.1,0.5,0l-0.2-0.3c0,0,0.1,0.1,0.2,0.2
										c0.1,0.1-0.1-0.2-0.2-0.3c0,0,0.2,0.1,0.2,0.2c-0.1-0.3-0.3-0.6,0-0.4l0.1,0.1c0.1,0.1-0.4-0.6-0.2-0.4v0.1
										c0.2,0,0.1-0.3,0.5,0c-0.3-0.4,0.2,0.1-0.2-0.5c0.3,0.2,0.3,0.3,0.6,0.4c0,0-0.2-0.4-0.3-0.4l0.2,0.3l-0.2-0.3l0.3,0.3
										v-0.1c0,0-0.1-0.1-0.2-0.2c-0.1-0.2,0.3,0.1,0.4,0.3l-0.1-0.3c0.1,0.1,0.1,0.2,0.1,0.3c-0.2-0.3,0.2,0.3,0.1,0
										c-0.1-0.1-0.1-0.2-0.2-0.2c0.2,0.2,0.2,0.1,0.2,0l0.1,0.2c0.1,0,0.1-0.2,0.2-0.3c-0.1-0.1-0.4-0.4-0.3-0.5l0.2,0.3
										c-0.1-0.2-0.1-0.1-0.3-0.4c0.1,0,0.3,0.3,0.3,0.4v-0.1c0.1,0.1,0.1,0.1,0.2,0.3c-0.1-0.2,0.3,0.3,0.1-0.1l0.1,0.1
										c0.1-0.1,0-0.2,0.1-0.3c-0.2-0.3-0.1-0.2-0.2-0.5c0.1,0,0.3,0.2,0.4,0.2c0-0.2-0.1-0.2-0.2-0.4c0.2,0.3,0.2,0.2,0.3,0.4
										c0-0.1,0.1-0.1,0-0.4c-0.1-0.1-0.1-0.1-0.2-0.2c0-0.1,0.1,0.1,0.2,0.2l0,0c-0.1-0.5,0.7,0.6,0.5,0l0,0l-0.1-0.3
										c0.1,0,0.1,0.2,0.2,0.4c-0.1-0.5,0.2,0,0.1-0.4c0.5,0.8,0.2-0.2,0.5,0.3l-0.1-0.2c-0.1-0.2,0.1,0.1,0.1,0.1
										c-0.1-0.1-0.1-0.2-0.1-0.3s0.1-0.1,0.1-0.1l-1.8-0.7c0,0.1,0,0.2-0.1,0.3l0.8-2c-0.2-0.1-0.3-0.1-0.5-0.2
										c-0.1,0,0.4,1,0.1,0.6l-0.1-0.4c0,0.5-0.4,0.2-0.4,0.6c0-0.1-0.1-0.2-0.1-0.2c-0.2-0.2-0.1,0.1,0,0.3c0,0-0.1-0.2-0.2-0.3
										c-0.1-0.1,0.1,0.4-0.1,0.1v-0.1c0,0.1-0.1,0,0.1,0.3c-0.1-0.1,0,0.2-0.2,0.1c0.2,0.3-0.2-0.1,0.1,0.4
										c-0.3-0.5-0.3-0.3-0.2-0.1c-0.1-0.1-0.1-0.1-0.2-0.3c0,0,0,0.1,0.1,0.4c-0.4-0.5,0.1,0.5-0.4-0.1c0,0.3,0,0.6,0,0.7
										c-0.3-0.4,0.1-0.1-0.2-0.6c0,0.3,0.2,0.7,0.1,0.6c-0.1,0-0.1-0.2-0.2-0.3c0,0.3-0.2,0.1-0.1,0.4l-0.1-0.1
										c0,0-0.1,0,0.1,0.2v-0.1c0.2,0.3,0.4,0.6,0.5,0.8c-0.4-0.6-0.2-0.1-0.7-0.8c0,0,0.1,0.1,0.2,0.3c0,0-0.1-0.1-0.2-0.2
										c0,0.2,0.2,0.3,0.1,0.4c-0.1-0.1-0.1-0.1-0.2-0.2c0.1,0.2,0.2,0.4,0.1,0.4c0-0.1-0.1-0.1-0.1-0.1c-0.1,0.1,0.3,0.6,0,0.5
										c-0.3-0.4-0.1-0.1-0.4-0.4v0.1l0.2,0.1c0,0,0.1,0.3,0,0.2l-0.1-0.2v0.1l0.2,0.1c0.1,0.2,0.4,0.4,0.2,0.4c0,0,0,0-0.2-0.1
										l0,0c0.1,0.1,0.2,0.2,0.1,0.2c-0.1-0.1-0.3-0.4-0.4-0.4c0.2,0.3,0,0.2,0.2,0.5c-0.1-0.1-0.2-0.2-0.2-0.3l0.2,0.2
										c-0.1-0.1-0.1-0.1-0.2-0.2c-0.1,0,0.4,0.4,0.2,0.3c0,0,0-0.1-0.1-0.1s0,0.3-0.2,0.2c-0.3-0.3,0-0.1-0.3-0.4
										c0,0.1,0.2,0.6,0,0.6l0,0c0.4,0.5-0.3-0.2-0.1,0.1c0,0-0.2-0.3-0.2-0.2c-0.1,0,0,0.2,0.1,0.4l-0.1-0.1
										c-0.1-0.1-0.1,0-0.2,0c0.1,0.1,0.1,0.1,0.2,0.3c-0.8-0.5,0.2,0.5-0.5,0.1l-0.1-0.1v0.2c0.2,0.2,0.1,0.1,0.3,0.2
										c0.1,0.1,0.2,0.2,0.2,0.2c-0.1-0.2-0.3-0.3-0.4-0.4c0.1,0.1,0.1,0.1,0.2,0.2c-0.4-0.3,0.4,0.4,0.1,0.2l-0.1-0.1
										c0,0.1,0.2,0.2,0.1,0.2c-0.2-0.2-0.1-0.1-0.3-0.3c0,0,0.4,0.5,0.1,0.3c-0.1-0.1,0-0.1-0.1-0.2c-0.3-0.2-0.2-0.1-0.3-0.2
										l0,0l-0.2-0.1l0.1,0.1c0.6,0.6,0,0.2,0.4,0.6c-0.3-0.4-0.2-0.2-0.5-0.4c-0.1-0.1-0.2-0.1-0.3-0.2c0.2,0.2-0.2-0.1,0.1,0.2
										c-0.1-0.1,0,0-0.2-0.2c0,0.1,0.2,0.1,0.3,0.2c0.2,0.3-0.5-0.2-0.1,0.2c0.1,0.2,0.4,0.5,0.5,0.7c-0.2-0.1-0.3-0.3-0.3-0.3
										c-0.2-0.1-0.2,0-0.1,0.1c-0.1-0.1-0.1-0.1-0.2-0.2c0,0,0.3,0.3,0.1,0.2c-0.1-0.1-0.2-0.2-0.3-0.3c0.1,0.1,0.2,0.3,0.2,0.4
										c-0.2-0.1-0.2-0.2-0.3-0.3c0,0.1,0.1,0.2,0.3,0.4h0.1c0,0-0.2-0.2-0.3-0.2c-0.2-0.2,0.1,0,0.2,0.1v0.1
										c0.5,0.4,0-0.2,0.1-0.2l0.4,0.3l-0.3-0.3c0.1,0.1,0.3,0.2,0.4,0.3c0.2,0.1-0.1-0.1,0.1,0c0,0,0.1,0,0.1,0.1l-0.1-0.1
										c0.1,0.1,0.3,0.2,0.2,0.2c0.3,0.1-0.2-0.3,0.1-0.1l0,0c-0.1-0.2-0.3-0.2-0.5-0.6l0.7,0.5l-0.3-0.2c0,0,0.1,0,0.2,0.1
										c-0.2-0.2-0.1-0.1-0.3-0.3c0.3,0.2,0-0.2,0.4,0.2c-0.2-0.2-0.2-0.1-0.3-0.3c0.5,0.4,0-0.1,0.2,0c0.2,0.2,0.1,0.1,0.3,0.3
										c-0.4-0.4,0.1,0,0.1-0.1c-0.3-0.3-0.1-0.2-0.1-0.3c0.1,0.1,0.3,0.1,0.4,0.1h0.1c-0.3-0.3-0.2-0.3-0.2-0.4
										c0.2,0.2,0.3,0.3,0.3,0.4l0,0c-0.1-0.1-0.1-0.2-0.2-0.2l0.2,0.2c0-0.1-0.2-0.3,0-0.2c-0.2-0.2-0.6-0.5-0.7-0.7
										c0.1,0.1,0.3,0.3,0.4,0.4c0,0-0.1-0.1,0-0.1l0.2,0.2c0.1,0.1-0.2-0.2-0.1-0.2c0.2,0.2,0.1,0.1,0.3,0.2c0,0-0.1-0.1,0,0
										c0,0,0.2,0.1,0.3,0.2c-0.1-0.1-0.2-0.2-0.2-0.3s0.2,0.2,0.3,0.2c-0.1-0.1,0,0-0.2-0.3c0,0,0.1,0.1,0.2,0.2
										c-0.1-0.1,0.1-0.1-0.2-0.4l0,0l0,0l0,0l0,0c-0.2-0.3,0.3,0,0.2-0.2l0.1,0.1c-0.1-0.1,0-0.1-0.1-0.4c0,0,0.2,0.1,0.3,0.2
										c0-0.1-0.1-0.2,0.1-0.1c0.1,0.2,0.1,0.1,0.1,0.1c0.1,0,0.2,0.2,0.1-0.1c0.2,0.2,0.3,0.2,0.2,0.2l-0.2-0.1
										c0-0.1,0-0.1,0.1-0.1l0.3,0.3c0.4,0.3-0.4-0.7,0.2-0.2c-0.2-0.2-0.2-0.1-0.4-0.4c0.1,0,0.5,0.4,0.5,0.4
										c0.2,0.1-0.3-0.5-0.2-0.4c-0.1-0.1-0.4-0.4-0.4-0.5c0.1,0,0.4,0.4,0.5,0.5c0,0,0,0-0.1,0c0,0,0,0.1,0.2,0.2l-0.1-0.1
										c0.1,0.1,0.2,0,0.3,0.2c-0.1-0.1-0.1-0.2-0.2-0.2c0.2,0.1,0.1-0.1,0.2,0c-0.1-0.1-0.2-0.2-0.2-0.2c0.2,0.1-0.1-0.2-0.1-0.3
										c0.2,0.1,0.3,0.4,0.3,0.2c0.1,0.1,0.2,0.3,0.3,0.4c-0.1-0.2,0.2,0.1,0.3,0.1V35c0-0.1,0-0.1,0-0.1l-0.2-0.2
										c0,0,0.1,0,0.1,0.1c-0.1-0.2-0.3-0.4-0.4-0.6c0.1,0.1,0-0.2,0.2,0.1c-0.1,0,0.2,0.3,0.2,0.4c0,0,0-0.1,0,0
										c0,0,0,0.1,0.1,0.1c0.3,0.2-0.2-0.3-0.2-0.4c0.1,0.2,0.3,0.3,0.2,0.3c0,0-0.2-0.3-0.3-0.4c0.1,0.1,0-0.1,0-0.1h-0.1
										c-0.1-0.2-0.1-0.2-0.1-0.2c0.1,0.1,0,0.1,0.1,0.2c-0.2-0.3,0.3,0.2,0.2,0c0.1,0.1,0.2,0.3,0.3,0.4c-0.1-0.3,0.2,0.2,0.1,0
										c-0.2-0.2-0.1-0.2-0.3-0.4v0.2l-0.2-0.4c0,0,0.1,0.2,0,0.2c-0.1-0.2-0.1-0.1-0.2-0.3c0.3,0.3-0.1-0.3,0.1-0.1l0.4,0.6
										c0.2,0.2-0.1-0.4,0.1-0.3l-0.1-0.1c-0.2-0.2,0-0.1,0-0.2c0.1,0.2,0.2,0.2,0.3,0.4c-0.1-0.1,0.1,0-0.2-0.4L342,34
										c0.1,0.1-0.3-0.6-0.2-0.6c0.1,0.2,0.2,0.3,0.3,0.5c0,0,0.1,0,0-0.1c0.1,0.1-0.1-0.3,0-0.1c0-0.1-0.2-0.3-0.1-0.3l0.1,0.1
										c-0.1-0.1,0-0.2-0.2-0.4c0.5,0.6,0.2-0.2,0.5,0.3c0-0.1,0-0.2,0.1-0.2c0,0.1,0.1,0.1,0,0.1c0.2,0.2-0.3-0.6-0.1-0.4
										c0.2,0.3,0.1,0.2,0.2,0.3c0.4,0.7,0-0.1,0.3,0.2l0,0c0.2,0.2-0.1-0.3,0-0.3c0,0,0,0.1,0.1,0.1c-0.1-0.4-0.1-0.5-0.1-0.6
										c0.1,0.3,0,0.2,0.2,0.4c0-0.1-0.2-0.4-0.2-0.5c0.1,0.1,0.2,0.2,0.3,0.5l0,0c0.2,0.4,0.1,0,0.1,0l0.1,0.2
										c0-0.1-0.2-0.5-0.1-0.5l-0.1-0.1c-0.1-0.4,0.1,0.2,0-0.1l0.2,0.4c0-0.1,0-0.3-0.1-0.4l0.3-0.6c-0.1,0-0.1,0-0.1,0
										c0.1,0,0.2-0.1,0.4-0.1l-0.4,0.9c0,0.1,0,0.3,0.1,0.4c0,0,0,0,0-0.1l0.5-1.3c0,0-0.1,0-0.2,0h0.1l0,0l0,0l0,0l0,0l-0.5,1.2
										l0,0l0,0l0,0l0,0l0.5-1.1l0,0l0,0l0,0l0,0h-0.1h-0.1c-0.1,0-0.1,0-0.2,0s-0.1,0-0.2,0c0.4-0.2,0.4-0.2,0.5-0.3l0.1-0.3
										l-1.2-0.2c-0.1,0-0.1,0-0.3-0.3c0,0.4-0.3,0-0.4,0.1c0.4,0.6,0,0,0.3,0.7c0,0.1,0,0.1-0.1,0l-0.3-0.3
										c-0.1-0.2,0-0.2-0.1-0.3c-0.1,0-0.2-0.3-0.3-0.4c0.1,0.2,0.1,0.3,0.1,0.3l0.2,0.3c0.1,0.4-0.4-0.5-0.3-0.1l-0.1-0.2
										c0,0.1-0.2,0.1,0,0.6c-0.1-0.1-0.2-0.2-0.2-0.3c-0.2,0,0.1,0.7-0.2,0.4l-0.1-0.2c0,0.1,0.1,0.3,0,0.2
										c0-0.1-0.1-0.2-0.1-0.2c0,0.1,0.1,0.3,0,0.2l-0.1-0.2c-0.2-0.1,0.1,0.5,0.1,0.7c-0.3-0.4-0.5-0.5-0.6-0.6v-0.1
										c-0.2,0,0,0.5,0,0.7c-0.4-0.4-0.4,0-0.7-0.2c0.1,0.1,0.2,0.3,0.3,0.4c-0.1-0.1,0.2,0.3-0.1,0l0,0c-0.3-0.4-0.3-0.2-0.3-0.2
										l0.4,0.5c-0.7-0.6-0.1,0.5-0.6-0.1c0.1,0.1,0,0.2,0.1,0.3l-0.2-0.3c-0.1,0-0.2,0-0.2,0.1l-0.1-0.2c-0.1,0,0.6,0.8,0.5,0.8
										l-0.3-0.4c-0.1,0.1-0.5-0.2-0.2,0.2c0-0.1-0.1-0.2-0.1-0.2s-0.4-0.1,0.1,0.4c-0.3-0.3-0.1,0,0,0.2l-0.2-0.2
										c0.3,0.3,0.3,0.4,0.4,0.6c0,0-0.2-0.2-0.1-0.1c-0.2-0.1,0.2,0.3,0,0.2l-0.1-0.2c-0.1,0,0,0.1,0.2,0.3
										c0.1,0.1-0.1,0-0.3-0.2c0.1,0.1,0.3,0.3,0.2,0.3c-0.1-0.1-0.1-0.1-0.1-0.2c-0.2-0.1,0.2,0.4-0.1,0.2
										c-0.1-0.1-0.1-0.1-0.1-0.1c0.1,0,0.1-0.1,0.1-0.1c-0.2-0.2-0.3-0.2-0.5-0.5c0.1,0.2,0.4,0.6,0.3,0.5c0,0,0,0-0.1-0.1l0,0
										c0,0,0,0,0,0.1h-0.1c-0.2-0.2-0.1,0-0.2,0c0.2,0.2,0.2,0.2,0.4,0.4c0,0,0,0,0-0.1l0,0l0,0c0,0,0,0,0-0.1
										c0.1,0.1,0.2,0.3,0,0.1c0.1,0.2,0.3,0.3,0.4,0.4c-0.4-0.3-0.6-0.4-0.8-0.6c0.1,0.2-0.1,0.2,0.3,0.7c0,0.1-0.1-0.1-0.2-0.2
										c0-0.1,0-0.1-0.1-0.1c0.1,0.1-0.1,0.2,0.2,0.5c-0.2-0.1-0.3-0.3-0.3-0.2l-0.1-0.1c-0.6-0.3,0.6,1-0.2,0.5
										c0,0,0.1,0,0.1,0.1c-0.4-0.1,0,0.6-0.6,0.3c-0.1,0,0.1,0.2,0.2,0.3l-0.3-0.2L337,36c0.2,0.3-0.8-0.4-0.4,0l0.2,0.1
										c-0.1,0,0,0.2-0.2,0c0,0,0.2,0.2,0.1,0.1l-0.1-0.1l0.1,0.2l0.1,0.7l0.1-0.1c0,0.2-0.5,0.6-0.4,0.7c0.1,0,0.4-0.4,0.5-0.5
										c0,0,0-0.1,0.1-0.3l0.1-0.1c0.3-0.4,0.7-0.9,0.9-1.2l-0.3,0.2l0.1-0.2h0.1c0.1-0.2,0-0.1-0.1,0.1c0.1-0.1,0.1-0.2,0.2-0.2
										l-0.2,0.2l-0.6,1l0.6,0.5l0.2,0.1l0,0l0,0l-0.1-0.1c0.2,0.1,0.3,0.3,0.4,0.3c-0.2-0.2-0.4-0.3-0.5-0.4
										c0.2,0.1,0.4,0.3,0.2,0.1c0.1,0.1,0.2,0.1,0.2,0.2c-0.1-0.1,0-0.1-0.2-0.3c0.3,0.2,0-0.1,0.4,0.2c-0.1-0.1-0.3-0.3-0.3-0.3
										c0.4,0.4,0.1-0.1,0.6,0.4c-0.4-0.4-0.1-0.3-0.3-0.5l0.1,0.1c0.1,0,0.2,0.1,0.3,0.2c-0.3-0.3-0.4-0.4-0.6-0.6
										C338.7,36.8,338.7,36.9,339.1,37.1c-0.4-0.2-0.3-0.3-0.6-0.5c0.2,0.2,0.1,0.1,0.4,0.3c-0.4-0.4-0.1-0.1-0.3-0.3
										c0.2,0.1,0.4,0.3,0.3,0.2C339,36.9,339.1,37.1,339.1,37.1z M339.3,35.4L339.3,35.4C339.3,35.4,339.3,35.5,339.3,35.4
										C339.3,35.5,339.3,35.4,339.3,35.4z M339.4,35.3L339.4,35.3c-0.1-0.1-0.2-0.1-0.2-0.1C339.2,35.3,339.3,35.3,339.4,35.3z
										 M337.6,33.9C337.6,33.8,337.6,33.9,337.6,33.9C337.7,33.9,337.7,34,337.6,33.9l0.1,0.1L337.6,33.9z"/>
									<path class="st16" d="M337.9,34.2L337.9,34.2C337.9,34.3,337.9,34.3,337.9,34.2L337.9,34.2L337.9,34.2z"/>
									<path class="st16" d="M339.1,35.4L339.1,35.4L339.1,35.4L339.1,35.4z"/>
									<polygon class="st16" points="341,34.8 340.9,34.7 340.9,34.8 									"/>
									<path class="st16" d="M337.9,35.1C337.8,35,337.8,35,337.9,35.1C337.8,35,337.8,35,337.9,35.1z"/>
									<path class="st16" d="M337.6,35.2h-0.1C337.6,35.2,337.6,35.2,337.6,35.2z"/>
									<path class="st16" d="M337.3,35.3l0.1,0.1l0,0L337.3,35.3z"/>
									<path class="st16" d="M339.7,32.5L339.7,32.5C339.7,32.4,339.7,32.4,339.7,32.5z"/>
									<path class="st16" d="M339.4,33.8c0-0.1-0.1-0.1-0.1-0.1C339.3,33.6,339.3,33.6,339.4,33.8z"/>
									<path class="st16" d="M340.5,31.4L340.5,31.4L340.5,31.4z"/>
									<path class="st16" d="M339.3,33.6L339.3,33.6C339.3,33.7,339.4,33.7,339.3,33.6z"/>
									<path class="st16" d="M336.6,35.9L336.6,35.9C336.6,36,336.6,36,336.6,35.9L336.6,35.9z"/>
									<path class="st16" d="M336.6,36L336.6,36L336.6,36z"/>
									<path class="st16" d="M336.7,36.1L336.7,36.1C336.6,36,336.6,36,336.7,36.1z"/>
									<path class="st16" d="M336.9,35.8L336.9,35.8C336.8,35.7,336.8,35.8,336.9,35.8z"/>
									<path class="st16" d="M336.9,35.7l-0.2-0.1l0.1,0.1C336.7,35.6,337.1,35.9,336.9,35.7z"/>
									<path class="st16" d="M338.3,36.4h-0.1c0.1,0.1,0.2,0.2,0.2,0.2C338.8,36.8,338.2,36.4,338.3,36.4z"/>
									<path class="st16" d="M338.6,36.4c0,0.1,0.1,0.1,0.2,0.2C338.7,36.4,338.7,36.4,338.6,36.4z"/>
									<path class="st16" d="M339.7,35.2l0.2,0.2C339.9,35.4,339.8,35.4,339.7,35.2z"/>
									<polygon class="st16" points="338.8,33.9 338.7,33.8 338.9,34 									"/>
									<path class="st16" d="M340.4,35.3v0.1V35.3z"/>
									<path class="st16" d="M342.4,33.7l-0.2-0.3C342.2,33.5,342.4,33.8,342.4,33.7z"/>
									<path class="st16" d="M343.1,32.9c0.1,0.2,0.2,0.3,0.1,0.1C343.2,32.9,343.1,32.8,343.1,32.9z"/>
									<path class="st16" d="M339.3,32.3v-0.2V32.3z"/>
								</g>
							</g>
						</g>
					</g>
				</g>
				<g>
					
						<linearGradient id="SVGID_8_" gradientUnits="userSpaceOnUse" x1="181.3546" y1="320.031" x2="198.1761" y2="315.0926" gradientTransform="matrix(-1 0 0 -1 545.668 347)">
						<stop  offset="0" style="stop-color:#FFFFFF"/>
						<stop  offset="1" style="stop-color:#000000"/>
					</linearGradient>
					<path class="st17" d="M350.9,32.3c0,0-1.7-1.1-3.7-1.5v-0.2c2,0.4,3.8,1.6,3.8,1.6L350.9,32.3z"/>
					<g>
						<g>
							<g>
								<g>
									<path class="st16" d="M350.3,31.8c0.1,0.1,0.3,0.2,0.2,0.1L350.3,31.8L350.3,31.8z"/>
									<path class="st16" d="M350.9,32.2c-0.2-0.1-0.4-0.3-0.7-0.5c0.3,0.2,0.2,0.1,0.5,0.4c0,0-0.1-0.1-0.2-0.1
										c0.1,0.1-0.1,0,0.1,0.1c0.3,0.2,0.3,0.1,0.1,0C350.8,32.1,350.9,32.1,350.9,32.2z"/>
									<path class="st16" d="M350.4,31.1L350.4,31.1L350.4,31.1z"/>
									<path class="st16" d="M349.8,30.5L349.8,30.5L349.8,30.5z"/>
									<path class="st16" d="M349.8,30.1L349.8,30.1L349.8,30.1z"/>
									<path class="st16" d="M350.4,31.1V31C350.4,31.1,350.4,31,350.4,31.1z"/>
									<path class="st16" d="M350.5,32.9L350.5,32.9C350.6,32.8,350.5,32.9,350.5,32.9L350.5,32.9z"/>
									<path class="st16" d="M350.8,31L350.8,31l0.1-0.1L350.8,31z"/>
									<path class="st16" d="M351.1,31c0,0-0.2,0.3-0.2,0.4c0.1-0.1,0.1-0.2,0.1-0.2C351,31.2,351.1,31.1,351.1,31z"/>
									<path class="st16" d="M351.2,31.8L351.2,31.8C351.2,31.7,351.2,31.7,351.2,31.8z"/>
									<path class="st16" d="M350.7,30.8c0,0,0-0.1,0.1-0.1C350.7,30.7,350.7,30.8,350.7,30.8z"/>
									<path class="st16" d="M351.5,30.8L351.5,30.8L351.5,30.8z"/>
									<polygon class="st16" points="350.9,32.4 350.9,32.4 350.8,32.5 									"/>
									<path class="st16" d="M349.7,29.6L349.7,29.6L349.7,29.6z"/>
									<path class="st16" d="M347,32.1c0-0.3,0.1-0.4,0.1-0.7C347.1,31.5,347,31.9,347,32.1z"/>
									<path class="st16" d="M350.5,32.9L350.5,32.9L350.5,32.9z"/>
									<path class="st16" d="M347.1,31.4L347.1,31.4L347.1,31.4L347.1,31.4z"/>
									<path class="st16" d="M349.1,29.6c0,0.1,0,0.1,0,0.1V29.6z"/>
									<path class="st16" d="M349.3,30.2L349.3,30.2C349.3,30.1,349.3,30.2,349.3,30.2z"/>
									<path class="st16" d="M348.7,29.9L348.7,29.9L348.7,29.9L348.7,29.9z"/>
									<path class="st16" d="M348.5,29.9L348.5,29.9L348.5,29.9L348.5,29.9z"/>
									<path class="st16" d="M350.7,30.6c0,0.1-0.1,0.2-0.1,0.3C350.7,30.6,350.8,30.6,350.7,30.6z"/>
									<path class="st16" d="M350.6,32.8c0,0.1-0.1,0.1-0.1,0.1l0,0C350.6,32.8,350.6,32.8,350.6,32.8z"/>
									<path class="st16" d="M347.9,32.4L347.9,32.4L347.9,32.4z"/>
									<path class="st16" d="M349.1,29.9L349.1,29.9C349.2,29.9,349.2,29.9,349.1,29.9z"/>
									<path class="st16" d="M347.8,32.4c0-0.1,0-0.2,0.1-0.2c0,0,0,0,0,0.1L347.8,32.4z"/>
									<path class="st16" d="M350.6,30.8L350.6,30.8L350.6,30.8z"/>
									<path class="st16" d="M351.2,30.3c0,0-0.2,0.4-0.3,0.6c-0.1,0.1,0.1-0.3,0.2-0.5c-0.1,0.1-0.3,0.4-0.3,0.4
										c0-0.1,0-0.1,0.1-0.2c-0.2,0.3-0.1,0-0.3,0.3v-0.1c-0.1,0.2-0.2,0.4-0.3,0.5c0,0-0.2,0.2,0,0c0,0,0.1-0.1,0.1-0.2l-0.1,0.1
										c0.2-0.4,0.1-0.1,0.2-0.4c-0.1,0.1-0.3,0.4-0.2,0.3c0.2-0.4,0.1-0.1,0.2-0.4v0.2c0.3-0.6,0,0.1,0.3-0.6
										c0-0.1-0.1,0.2-0.1,0c-0.1,0.2-0.2,0.3-0.3,0.5c-0.2,0.3,0.4-0.9,0.1-0.5c-0.1,0.2-0.4,0.7-0.3,0.4l0.2-0.4
										c0-0.1-0.3,0.6-0.2,0.3c0.1-0.2,0.1-0.1,0.1-0.2c0.1-0.3-0.1,0.2-0.2,0.2l0.2-0.4c-0.1,0-0.3,0.3-0.3,0.3
										c0.1-0.1,0.1-0.2,0.2-0.3c-0.2,0.1-0.1-0.1-0.1-0.4l-0.2,0.3c0,0,0.1-0.1,0.1-0.2s-0.1,0.2-0.2,0.3c0,0,0.1-0.2,0.1-0.3
										c-0.2,0.2-0.4,0.5-0.3,0.2V30c0-0.1-0.3,0.6-0.2,0.3v-0.1c0-0.2-0.2,0.1-0.1-0.4c-0.2,0.5,0-0.2-0.3,0.4
										c0.1-0.3,0.1-0.4,0.2-0.7c0,0-0.2,0.4-0.2,0.5l0.1-0.3l-0.2,0.3l0.1-0.4l-0.1,0.1c0,0,0,0.2-0.1,0.3
										c-0.1,0.1,0-0.3,0.1-0.4l-0.2,0.3c0.1-0.1,0.1-0.2,0.1-0.3c-0.2,0.3,0.1-0.4,0-0.1c0,0.1-0.1,0.2-0.1,0.3
										c0.1-0.2,0-0.2-0.1-0.2l0.1-0.2c0-0.1-0.2,0.1-0.2,0c0,0.1-0.2,0.5-0.2,0.6l0.1-0.4c-0.1,0.2,0,0.1-0.1,0.4
										c0,0,0.1-0.4,0.2-0.5l-0.1,0.1c0-0.1,0.1-0.2,0.1-0.3c-0.1,0.2,0.1-0.4-0.1,0v-0.1c-0.1,0-0.1,0.1-0.2,0.1
										c-0.1,0.3-0.1,0.2-0.2,0.5c0-0.1,0-0.4,0-0.4c-0.1,0.1-0.1,0.3-0.2,0.5c0.1-0.3,0-0.3,0.1-0.5c-0.1,0-0.1,0-0.2,0.3
										c0,0.1,0,0.2-0.1,0.3c0,0,0-0.1,0-0.3l0,0c-0.2,0.4,0-0.9-0.2-0.3l0,0l-0.1,0.3c0-0.1,0.1-0.2,0.1-0.4
										c-0.2,0.5-0.1-0.1-0.2,0.2c0-0.1,0-0.2,0-0.3l1.2,1.8c0.4,0-0.2-0.2,0.3-0.1h-0.2c-0.2-0.1,0.1,0,0.2,0
										c-0.2,0-0.2,0-0.3-0.1l0,0l-1.6,1.1c0.1-0.1,0.1,0.4,0.2,0.6c0,0.1,0.3-1,0.2-0.5l-0.1,0.4c0.2-0.4,0.2,0.1,0.3-0.3
										c0,0.1-0.1,0.2-0.1,0.2c-0.1,0.3,0.1,0,0.1-0.2c0,0-0.1,0.2-0.1,0.3c0,0.2,0.1-0.3,0.1-0.1v0.1c0.1-0.1,0,0,0.1-0.3
										c0,0.2,0.1-0.1,0.1,0.1c0.1-0.3,0,0.2,0.2-0.3c-0.2,0.5-0.1,0.4,0,0.2c-0.1,0.2,0,0.2-0.1,0.4c0,0,0.1-0.1,0.2-0.3
										c-0.2,0.6,0.2-0.5,0,0.3c0.2-0.2,0.3-0.4,0.4-0.5c-0.2,0.5-0.1,0-0.3,0.5c0.1-0.2,0.3-0.6,0.3-0.5c0,0.1-0.1,0.2-0.1,0.3
										c0.1-0.2,0.1,0.1,0.2-0.2c0,0,0,0.1-0.1,0.1c0,0,0,0.1,0.1-0.1v0.1c0.1-0.3,0.3-0.7,0.4-0.8c-0.3,0.6,0,0.2-0.4,1
										c0,0,0.1-0.1,0.1-0.3c0,0,0,0.1-0.1,0.3c0.1-0.1,0.2-0.3,0.2-0.3c0,0.1-0.1,0.1-0.1,0.3c0.1-0.2,0.2-0.4,0.2-0.3
										c0,0.1-0.1,0.2-0.1,0.1c0.1,0,0.3-0.5,0.3-0.3c-0.2,0.5,0,0.2-0.2,0.6l0.1-0.1L349,32c0,0,0.2-0.3,0.1-0.1l-0.1,0.2
										l0.1-0.1v-0.2c0.1-0.2,0.2-0.5,0.2-0.4c0,0,0,0-0.1,0.3l0,0c0.1-0.1,0.1-0.3,0.1-0.1c-0.1,0.1-0.2,0.4-0.2,0.5
										c0.2-0.3,0.1-0.1,0.3-0.4c0,0.1-0.1,0.3-0.2,0.3l0.1-0.3c0,0.1,0,0.1-0.1,0.3c0,0.1,0.2-0.5,0.2-0.3c0,0,0,0.1-0.1,0.1
										c0,0.1,0.2-0.1,0.1,0c-0.2,0.4-0.1,0.1-0.2,0.4c0.1,0,0.3-0.4,0.3-0.3l0,0c0.3-0.6-0.1,0.3,0.1,0c0,0-0.2,0.3-0.1,0.2
										c0,0.1,0.1-0.1,0.3-0.3l-0.1,0.1c0,0.1,0,0.1,0,0.2c0.1-0.1,0.1-0.1,0.2-0.3c-0.4,0.8,0.4-0.4,0.1,0.3l-0.1,0.1l0.1-0.1
										c0.1-0.2,0.1-0.1,0.2-0.3c0.1-0.1,0.2-0.2,0.2-0.2c-0.1,0.1-0.2,0.4-0.3,0.5c0-0.1,0.1-0.2,0.1-0.2
										c-0.2,0.4,0.3-0.5,0.1-0.2l-0.1,0.1c0-0.1,0.2-0.2,0.1-0.2c-0.1,0.3-0.1,0.1-0.2,0.3c0,0,0.3-0.5,0.2-0.2
										c-0.1,0.1-0.1,0.1-0.1,0.1c-0.2,0.3-0.1,0.3-0.1,0.3l0,0v0.2v-0.1c0.4-0.7,0.1-0.1,0.4-0.5c-0.3,0.4-0.2,0.3-0.3,0.6
										c0,0.1-0.1,0.2-0.1,0.3c0.2-0.2-0.1,0.2,0.1-0.1c-0.1,0.1,0,0-0.1,0.3c0.1-0.1,0.1-0.2,0.2-0.3c0.2-0.3-0.2,0.5,0.1,0
										c0.2-0.2,0.4-0.5,0.5-0.6c-0.1,0.2-0.2,0.3-0.2,0.3c-0.1,0.2,0,0.1,0,0c-0.1,0.1-0.1,0.2-0.2,0.3c0,0,0-0.1,0.1-0.1
										c0.1-0.2,0.3-0.4,0.3-0.4l-0.3-0.3l0,0c-0.1-0.1-0.2-0.1-0.3-0.2l0.6,0.5c-0.2,0.3-0.3,0.5-0.5,0.7
										c0.1-0.2,0.3-0.5,0.5-0.7l-0.7-0.5c0.1,0.1,0.2,0.2,0.3,0.3c-0.2-0.1-0.2-0.2-0.4-0.3c0.1,0.1,0.1,0.2,0.4,0.3h0.1
										c0,0-0.2-0.1-0.3-0.2c-0.2-0.2,0.1,0,0.2,0.1l0.1,0.1c0.5,0.3,0.1,0,0-0.1l0.3,0.2c-0.1,0.1-0.1,0.2-0.2,0.3l0,0l0,0l0,0
										l0.3-0.4l-0.2,0.3c0.1-0.1,0.2-0.3,0.3-0.4c0.1-0.2-0.1,0.1,0-0.1v-0.1l-0.1,0.1c0.1-0.1,0.2-0.3,0.2-0.2
										c0.1-0.3-0.3,0.3-0.1,0l0,0c-0.1,0.1-0.2,0.3-0.4,0.6l0.4-0.8l-0.2,0.3c0,0,0,0,0.1-0.2c-0.1,0.2-0.1,0.1-0.2,0.3
										c0.1-0.3-0.1,0.1,0.1-0.4c-0.1,0.2-0.1,0.2-0.2,0.3c0.3-0.5-0.1,0.1,0-0.2c0.2-0.3,0.1-0.1,0.2-0.4c-0.3,0.5,0-0.1-0.1,0
										c-0.2,0.4-0.1,0.1-0.2,0.2c0.1-0.1,0.1-0.2,0.1-0.4v-0.1c-0.2,0.4-0.2,0.3-0.3,0.4c0.1-0.2,0.2-0.3,0.2-0.4l0,0
										c-0.1,0.1-0.1,0.2-0.2,0.2l0.2-0.3c0,0-0.2,0.3-0.2,0.1c-0.1,0.3-0.4,0.8-0.5,0.9c0.1-0.1,0.2-0.4,0.2-0.4s-0.1,0.1,0,0
										l0.1-0.2c0-0.1-0.1,0.2-0.1,0.2c0.1-0.2,0.1-0.1,0.2-0.3c0,0,0,0.1,0,0c0,0,0-0.2,0.1-0.3c-0.1,0.1-0.1,0.3-0.2,0.3
										c0,0,0.1-0.3,0.2-0.4c-0.1,0.1,0,0-0.2,0.3l0.1-0.2c-0.1,0.1-0.1,0-0.2,0.3l0,0l0,0l0,0l0,0c-0.2,0.3,0-0.2-0.1-0.1
										l0.1-0.1c-0.1,0.1-0.1,0-0.2,0.3c0,0,0.1-0.2,0.1-0.3c-0.1,0.1-0.1,0.2-0.1,0c0.1-0.2,0.1-0.2,0.1-0.1c0-0.1,0.1-0.3-0.1,0
										c0.1-0.3,0.1-0.3,0.1-0.3l-0.1,0.2l0,0l0.2-0.4c0.1-0.5-0.5,0.7-0.2-0.1c-0.1,0.2,0,0.2-0.2,0.5c0-0.1,0.2-0.6,0.2-0.6
										c0-0.2-0.3,0.5-0.3,0.4c-0.1,0.1-0.2,0.5-0.3,0.6c0-0.1,0.2-0.6,0.3-0.6c0,0,0,0,0,0.1c0,0,0.1-0.1,0.1-0.2l-0.1,0.1
										c0-0.1,0-0.1,0.1-0.3c-0.1,0.1-0.1,0.2-0.1,0.3c0-0.2-0.1,0,0-0.2c0,0.1-0.1,0.2-0.1,0.2c0-0.2-0.1,0.2-0.2,0.3
										c0.1-0.2,0.2-0.5,0.1-0.3c0-0.1,0.1-0.3,0.2-0.4c-0.1,0.2,0-0.2,0-0.2l0.1-0.1c0,0.1,0,0.1-0.1,0l-0.1,0.3c0,0,0-0.1,0-0.2
										c-0.1,0.2-0.2,0.4-0.3,0.7c0-0.1-0.1,0.1,0-0.2c0,0.1,0.1-0.3,0.2-0.4l0,0v-0.1c0.1-0.3-0.2,0.4-0.2,0.4
										c0.1-0.2,0.1-0.4,0.1-0.3c0,0-0.1,0.3-0.2,0.5c0-0.2-0.1,0.1-0.1,0.1v0.1c-0.1,0.2-0.1,0.2-0.1,0.2
										c0.1-0.2,0.1-0.1,0.1-0.2c-0.2,0.3,0.1-0.4,0-0.2c0-0.1,0.1-0.4,0.2-0.5c-0.1,0.2,0.1-0.3-0.1-0.1
										c-0.1,0.3-0.1,0.2-0.2,0.4l0.1-0.2l-0.2,0.4l0.1-0.1c-0.1,0.2-0.1,0.1-0.1,0.4c0.1-0.4-0.1,0.2-0.1-0.1l0.2-0.6
										c0.1-0.3-0.2,0.3-0.2,0.1V30c-0.1,0.3,0,0-0.1,0.1c0.1-0.2,0.1-0.3,0.1-0.4c-0.1,0.2,0,0-0.2,0.4l0.1-0.3
										c0-0.1-0.3,0.6-0.3,0.5c0.1-0.2,0.1-0.4,0.2-0.6c0,0,0-0.1-0.1,0.1c0-0.1-0.1,0.3-0.1,0.1c0,0.1-0.1,0.3-0.1,0.3v-0.1
										c0,0.1-0.1,0.1-0.1,0.4c0.2-0.7-0.1,0,0-0.6C348,30,348,30,347.9,30c0-0.1,0-0.1,0-0.1c0-0.2-0.2,0.6-0.2,0.4
										c0.1-0.4,0.1-0.2,0.1-0.3c0.2-0.7-0.1,0.1,0-0.4l0,0c0-0.3-0.1,0.3-0.2,0.2v-0.1c-0.1,0.4-0.2,0.5-0.3,0.6
										c0.1-0.3,0.1-0.1,0.1-0.4c0,0-0.1,0.5-0.2,0.5c0-0.2,0-0.3,0.1-0.6l0,0c0.1-0.4,0,0,0-0.1v-0.2c-0.1,0-0.2,0.5-0.2,0.4V30
										c-0.1,0.4,0-0.3-0.1,0.1l0.1-0.5c0,0.1-0.2,0.4-0.2,0.5c0.1-0.3,0.2-0.5,0.3-0.7c0,0-0.1,0-0.1,0.2c0,0,0.1-0.2,0-0.1
										c-0.1,0.4-0.2,0.5-0.2,0.5c0.1-0.4,0.1-0.5,0.1-0.5s0,0,0-0.1v-0.1v-0.1l0,0l0,0l-1.4,0.9l0,0l0,0h-0.1
										c0.3,0.1-0.2,0.1-0.1,0.2c0.7,0.1,0,0,0.7,0.2l0,0l0.5,0.7l0,0v0.4c0,0.2,0,0.2-0.1,0.3c0,0.1-0.1,0.3-0.1,0.5
										c0.1-0.3,0.1-0.4,0.1-0.3v-0.3c0.1-0.4-0.1,0.6,0,0.2l-0.1,0.2c0.1-0.1,0.1,0,0.2-0.5c0,0.1-0.1,0.3-0.1,0.3
										c0,0.1,0.3-0.6,0.2-0.2l-0.1,0.2c0,0,0.1-0.3,0.1-0.1c0,0.1-0.1,0.2,0,0.2c0-0.1,0.1-0.3,0.1-0.2l-0.1,0.2
										c0,0.2,0.2-0.4,0.3-0.5c-0.1,0.5-0.2,0.7-0.2,0.8v0.1c0,0.1,0.2-0.4,0.4-0.6c-0.1,0.5,0,0.3,0,0.6c0-0.1,0.1-0.4,0.2-0.4
										c0,0.1,0.2-0.3,0,0.1l0,0c-0.1,0.4-0.1,0.3-0.1,0.4l0.2-0.6c-0.3,0.9,0.3-0.3,0,0.5c0.1-0.1,0.1-0.1,0.2-0.3l-0.1,0.3
										c0,0.1,0,0.1,0.1,0.1l-0.1,0.2l0.4-0.9l-0.2,0.5c0.1,0-0.1,0.4,0.1,0c0,0.1-0.1,0.2-0.1,0.2s-0.1,0.3,0.2-0.3
										c-0.2,0.4,0,0.1,0.1-0.1l-0.1,0.3c0.2-0.4,0.2-0.5,0.3-0.6l-0.1,0.2c0,0.2,0.1-0.3,0.1-0.1l-0.1,0.2c0,0,0.1-0.1,0.2-0.3
										c0.1-0.1,0,0.1-0.1,0.4c0.1-0.2,0.2-0.4,0.2-0.3c0,0.1-0.1,0.2-0.1,0.2c-0.1,0.2,0.2-0.3,0.1,0c0,0.1-0.1,0.1-0.1,0.2v-0.1
										c-0.1,0.3-0.1,0.3-0.3,0.7c0.1-0.2,0.4-0.6,0.3-0.5v0.1l0,0l0,0v0.1c-0.1,0.2,0,0.1,0,0.2c0.1-0.3,0.1-0.2,0.2-0.5l0,0l0,0
										l0,0l0,0c0.1-0.1,0.2-0.3,0.1-0.1c0.1-0.2,0.2-0.4,0.2-0.5c-0.2,0.4-0.3,0.7-0.4,0.9c0.1-0.1,0.1-0.1,0.4-0.6
										c0-0.1-0.1,0.2-0.1,0.3s0,0-0.1,0.1c0.1-0.1,0.1,0,0.3-0.4c-0.1,0.2-0.2,0.3-0.1,0.3l-0.1,0.1c-0.2,0.7,0.6-0.9,0.3-0.1
										c0-0.1,0-0.1,0.1-0.1c-0.1,0.4,0.4-0.2,0.2,0.4c0,0.1,0.1-0.1,0.2-0.3l-0.2,0.3l0.2-0.3c0.2-0.2-0.4,0.8,0,0.3l0.1-0.2
										c0,0,0.1-0.1,0,0.1c0,0,0.1-0.2,0.1-0.1l-0.1,0.2l0.2-0.2c0,0.1-0.4,0.6-0.4,0.7c0.1-0.1,0.3-0.4,0.4-0.5
										c0,0,0-0.1,0.1-0.3l0.1-0.1c0.3-0.5,0.6-0.9,0.8-1.3l-0.2,0.3l0.1-0.2l0,0c0.1-0.2,0,0-0.1,0.1c0.1-0.1,0.1-0.2,0.1-0.3
										l-0.3,0.4c0.1-0.2,0.2-0.4,0.3-0.5c-0.1,0.2-0.2,0.4-0.3,0.5c0.1-0.2,0.2-0.4,0.1-0.2c0.1-0.1,0.1-0.2,0.2-0.2
										c-0.1,0.1-0.1,0-0.2,0.3c0.1-0.3-0.1,0,0.2-0.4c-0.1,0.1-0.2,0.3-0.3,0.3c0.3-0.5,0-0.1,0.3-0.6c-0.3,0.5-0.2,0.2-0.4,0.4
										l0.1-0.1c0-0.1,0.1-0.2,0.1-0.3c-0.2,0.4-0.3,0.5-0.5,0.7c0.2-0.4,0.3-0.5,0.5-0.8c-0.2,0.3-0.2,0.3-0.4,0.6
										c0.1-0.3,0-0.1,0.2-0.5c-0.3,0.5-0.1,0.1-0.3,0.4c0.1-0.3,0.3-0.5,0.1-0.3C351.1,30.4,351.2,30.3,351.2,30.3z M350,30.8
										L350,30.8L350,30.8L350,30.8z M349.9,30.7C349.9,30.8,349.9,30.8,349.9,30.7c0,0.1-0.1,0.2-0.1,0.2
										C349.9,30.9,349.9,30.8,349.9,30.7z M349.1,32.9C349,32.9,349.1,32.9,349.1,32.9c0-0.1,0-0.1,0.1-0.1l0,0
										C349.1,32.8,349.1,32.8,349.1,32.9z"/>
									<path class="st16" d="M349.3,32.5L349.3,32.5C349.3,32.4,349.3,32.4,349.3,32.5L349.3,32.5L349.3,32.5z"/>
									<path class="st16" d="M350.4,31.1L350.4,31.1L350.4,31.1L350.4,31.1z"/>
									<path class="st16" d="M349.3,29.8l-0.1,0.1L349.3,29.8z"/>
									<path class="st16" d="M350.2,32.3C350.1,32.3,350.1,32.3,350.2,32.3C350.1,32.3,350.1,32.3,350.2,32.3z"/>
									<path class="st16" d="M350.2,32.4L350.2,32.4L350.2,32.4z"/>
									<path class="st16" d="M350.3,32.6l0.1-0.1l0,0L350.3,32.6z"/>
									<path class="st16" d="M348.5,32.2L348.5,32.2C348.5,32.3,348.5,32.3,348.5,32.2z"/>
									<path class="st16" d="M349.3,31.7c0,0.1-0.1,0.1-0.1,0.1C349.2,31.9,349.2,31.9,349.3,31.7z"/>
									<path class="st16" d="M347.9,32.4L347.9,32.4L347.9,32.4z"/>
									<path class="st16" d="M349.2,31.8C349.2,31.9,349.2,31.9,349.2,31.8L349.2,31.8z"/>
									<path class="st16" d="M350.2,31.6L350.2,31.6L350.2,31.6L350.2,31.6z"/>
									<path class="st16" d="M350.2,31.6L350.2,31.6L350.2,31.6z"/>
									<path class="st16" d="M350.3,31.7L350.3,31.7C350.2,31.6,350.2,31.6,350.3,31.7z"/>
									<path class="st16" d="M350.5,32.8l-0.1,0.1C350.5,32.9,350.5,32.8,350.5,32.8z"/>
									<path class="st16" d="M350.5,32.8l-0.1,0.2L350.5,32.8C350.4,33,350.6,32.6,350.5,32.8z"/>
									<path class="st16" d="M351.1,31.4v0.1c0.1-0.1,0.1-0.3,0.2-0.3C351.4,30.9,351.1,31.5,351.1,31.4z"/>
									<path class="st16" d="M351.1,31.2l0.1-0.2C351.1,31.1,351.1,31.1,351.1,31.2z"/>
									<path class="st16" d="M350.2,30.8l0.1-0.3C350.3,30.5,350.3,30.6,350.2,30.8z"/>
									<polygon class="st16" points="349.4,32.1 349.3,32.3 349.5,32 									"/>
									<path class="st16" d="M350.2,30.1L350.2,30.1L350.2,30.1z"/>
									<path class="st16" d="M348.6,29.6l-0.1,0.4C348.5,29.9,348.7,29.5,348.6,29.6z"/>
									<path class="st16" d="M347.8,29.7c0-0.2,0-0.3,0-0.1C347.8,29.6,347.8,29.8,347.8,29.7z"/>
									<path class="st16" d="M348.1,32.5l-0.1,0.1L348.1,32.5z"/>
								</g>
							</g>
						</g>
					</g>
				</g>
				<path class="st3" d="M358.6,64.9c-0.5,0-0.8-0.4-0.8-0.8s0.4-0.8,0.8-0.8c0.5,0,0.8,0.4,0.8,0.8
					C359.4,64.5,359.1,64.9,358.6,64.9z"/>
				<path class="st3" d="M352.9,64.2c-0.5,0-0.8-0.4-0.8-0.8s0.4-0.8,0.8-0.8c0.5,0,0.8,0.4,0.8,0.8S353.4,64.2,352.9,64.2z"/>
				<path class="st3" d="M357.2,60.6c-0.7,0-0.9-0.4-0.9-0.7v-0.1c0-0.5,0.4-0.8,0.9-0.8h0.1c0.6,0,0.6,0.6,0.6,0.8V60
					c0,0.4-0.1,0.7-0.6,0.7h-0.1V60.6z"/>
				<path class="st2" d="M364.4,39"/>
				<path class="st3" d="M327.9,70.2c-0.2,0-0.5,0-0.9-0.1c-0.6-0.1-1.3-0.2-2.2-0.2c-0.9,0-2.1-0.4-3.5-1.3l-0.5-0.3
					c-0.5-0.3-1-0.6-1.4-0.7c-0.5-0.5-1-0.9-1.4-0.9c-0.3,0-0.5,0.2-0.7,0.5l-0.1,0.2l-0.1-0.2c-0.7-2.2-1.3-2.7-3.5-2.7h-0.2
					l0.2-0.2c0.4-0.4,0.5-0.8,0.5-1.1c-0.1-0.5-0.5-0.8-1.3-1.3l-0.1-0.1l0.1-0.1c0.2-0.3-0.1-0.7-0.4-1.2l-0.1-0.2
					c-0.4-0.6-0.7-1.2-0.8-1.7c-0.1-0.7-0.2-1.2-0.6-1.2h-0.2l0.1-0.1c0.2-0.4,0.4-0.9,0.3-1.1c-0.1-0.1-0.2-0.1-0.5-0.1
					c-0.1,0-0.3,0-0.4,0l-0.4,0.1l0.3-0.3c0.4-0.4,1-0.9,0.9-1.2c-0.1-0.2-0.5-0.3-1.3-0.3v-0.2c1-0.3,1.5-0.6,1.5-0.8
					s-0.4-0.4-1.3-0.7v-0.2c0.7,0,1.7-0.1,1.8-0.4c0.1-0.3-0.7-1-1-1.3l0.1-0.2c0.4,0.2,0.6,0.3,0.8,0.3c-0.2-0.1-0.4-0.3-0.8-0.5
					l0.1-0.2c0.5,0.2,0.9,0.2,1.2,0.2c0.2,0,0.4-0.1,0.5-0.2c0.2-0.2,0.2-0.6,0.1-1.2l-0.1-0.4l0.3,0.3c0.5,0.6,0.7,0.7,0.8,0.7
					c0.1-0.1,0.1-0.2,0-1c-0.1-0.1-0.2-0.4-0.4-0.8l-0.2-0.4l0.4,0.2c0.7,0.4,1.2,0.6,1.6,0.6c0.2,0,0.3,0,0.5-0.1h0.1l0.1,0.1
					c0.2,0.2,0.4,0.3,0.7,0.3c0.2,0,0.4-0.1,0.7-0.3c0.4-0.2,0.9-0.7,1.7-1.5l0.3-0.3l-0.1,0.4c-0.1,0.6-0.1,1,0.1,1.2
					c0.1,0.1,0.2,0.2,0.5,0.2s0.7-0.1,1.3-0.3c0.3,0.2,0.8,0.2,1.2,0.2c0.3,0,0.5,0,0.8,0h0.2c0.7,0,1.7-0.2,3-0.5
					c2.1-0.4,5.1-1,7.9-1c4.2,0,7.1,1.2,9,3.7l0.1,0.2H343c-0.1,0-13.9,1.3-17.2,7.6c-1.1,2.2-0.9,4.8,0.9,7.8
					c1.8,3.1,2.2,3.9,2,4.3C328.3,70.2,328.1,70.2,327.9,70.2z"/>
				<path class="st18" d="M336.8,48.3c-14.4,0-14.7-10.9-14.9-16.7c-0.1-1.9-0.1-3.3-0.6-3.7l-0.2-0.1c-2.6-0.7-6-3-6-3l0.1-0.2
					c0,0,2.4,1.3,6,3c0.1,0,0.1,0.1,0.2,0.1c7.2,3.4,17.2,7.4,24.4,7.4c3.6,0,6-1,7.4-3l0.1-0.2l3.3,9.4c0,0.1,0.1,1.2-1.2,2.5
					c-1.8,2-6.5,4.4-18.3,4.5L336.8,48.3z"/>
				<path d="M315,48.6c-0.6,0-1.1-0.4-1.6-1.2s-0.9-1.2-1.3-1.7c-0.3-0.3-0.5-0.6-0.8-0.9c-0.5-0.7-1.1-1.8-1.9-4.7
					c-0.4-1.5-0.6-2.3-0.7-2.6c-0.1,0-0.2-0.2-0.9-2.3c-0.5-1.5-0.9-2.4-1.2-2.9c-0.4-0.8-0.4-0.9,0.2-1.3c0.2-0.2,0.5-0.4,1-0.8
					c0.6-0.5,1.2-0.8,1.8-0.8c1.4,0,2.7,1.3,4.1,2.7c0.5,0.5,1.1,1.1,1.6,1.6l0.5,0.5c1.1,1,1.8,1.7,2.7,3c0.6,0.9,1,2.4,0.9,4
					c-0.1,2.3-1.1,4.6-2.7,6.3l0,0c0,0-0.2,0.3-0.5,0.6C315.9,48.4,315.4,48.6,315,48.6L315,48.6z"/>
				<path class="st19" d="M379,52.9c-3.5-0.2-5.3-2.3-5.4-6.2v-0.1h0.1c1.1-0.3,2.2-0.5,3.4-0.5c2.2,0,3.9,0.6,4.4,1.6
					c0.3,0.5,0.2,1.1-0.2,1.7C381.3,49.4,380.3,51.1,379,52.9L379,52.9L379,52.9z"/>
				<linearGradient id="SVGID_9_" gradientUnits="userSpaceOnUse" x1="309.7" y1="58.3" x2="343.2" y2="58.3">
					<stop  offset="0" style="stop-color:#573D39"/>
					<stop  offset="6.804764e-02" style="stop-color:#503630"/>
					<stop  offset="0.2156" style="stop-color:#482E25"/>
					<stop  offset="0.4233" style="stop-color:#42281E"/>
					<stop  offset="1" style="stop-color:#41271C"/>
				</linearGradient>
				<path class="st20" d="M327.9,70.2c-0.2,0-0.5,0-0.9-0.1c-0.6-0.1-1.3-0.2-2.2-0.2c-0.9,0-2.1-0.4-3.5-1.3l-0.5-0.3
					c-0.5-0.3-1-0.6-1.4-0.7c-0.5-0.5-1-0.9-1.4-0.9c-0.3,0-0.5,0.2-0.7,0.5l-0.1,0.2l-0.1-0.2c-0.7-2.2-1.3-2.7-3.5-2.7h-0.2
					l0.2-0.2c0.4-0.4,0.5-0.8,0.5-1.1c-0.1-0.5-0.5-0.8-1.3-1.3l-0.1-0.1l0.1-0.1c0.2-0.3-0.1-0.7-0.4-1.2l-0.1-0.2
					c-0.4-0.6-0.7-1.2-0.8-1.7c-0.1-0.7-0.2-1.2-0.6-1.2h-0.2l0.1-0.1c0.2-0.4,0.4-0.9,0.3-1.1c-0.1-0.1-0.2-0.1-0.5-0.1
					c-0.1,0-0.3,0-0.4,0l-0.4,0.1l0.3-0.3c0.4-0.4,1-0.9,0.9-1.2c-0.1-0.2-0.5-0.3-1.3-0.3v-0.2c1-0.3,1.5-0.6,1.5-0.8
					s-0.4-0.4-1.3-0.7v-0.2c0.7,0,1.7-0.1,1.8-0.4c0.1-0.3-0.7-1-1-1.3l0.1-0.2c0.4,0.2,0.6,0.3,0.8,0.3c-0.2-0.1-0.4-0.3-0.8-0.5
					l0.1-0.2c0.5,0.2,0.9,0.2,1.2,0.2c0.2,0,0.4-0.1,0.5-0.2c0.2-0.2,0.2-0.6,0.1-1.2l-0.1-0.4l0.3,0.3c0.5,0.6,0.7,0.7,0.8,0.7
					c0.1-0.1,0.1-0.2,0-1c-0.1-0.1-0.2-0.4-0.4-0.8l-0.2-0.4l0.4,0.2c0.7,0.4,1.2,0.6,1.6,0.6c0.2,0,0.3,0,0.5-0.1h0.1l0.1,0.1
					c0.2,0.2,0.4,0.3,0.7,0.3c0.2,0,0.4-0.1,0.7-0.3c0.4-0.2,0.9-0.7,1.7-1.5l0.3-0.3l-0.1,0.4c-0.1,0.6-0.1,1,0.1,1.2
					c0.1,0.1,0.2,0.2,0.5,0.2s0.7-0.1,1.3-0.3c0.3,0.2,0.8,0.2,1.2,0.2c0.3,0,0.5,0,0.8,0h0.2c0.7,0,1.7-0.2,3-0.5
					c2.1-0.4,5.1-1,7.9-1c4.2,0,7.1,1.2,9,3.7l0.1,0.2H343c-0.1,0-13.9,1.3-17.2,7.6c-1.1,2.2-0.9,4.8,0.9,7.8
					c1.8,3.1,2.2,3.9,2,4.3C328.3,70.2,328.1,70.2,327.9,70.2z"/>
			</g>
		</g>
	</g>
</g>
<g>
	<path class="st3" d="M237.2,61c0,0-24,3.9-25.2,6.4c-1.2,2.4,3.4,0.8,7.1-0.4c3.7-1.1,10.1,2.7,10.1,2.7s-19.4,3-22.6,5.5
		c-3.2,2.5,3-0.9,12.9-1c9.9,0-18.5,3.8-12.7,4.8c5.7,1,8,1.1,8,1.1l-7.8,2.4l6.4,1.6"/>
	<path class="st3" d="M206,182.7c-1.3,0-2.4-0.4-3.3-1.1c-2.6-2.1-5-3.6-6.9-4.8c-3.9-2.5-5.9-3.7-4.2-6.8c0.4-0.7,0.9-1.7,1.6-3
		c3.5-6.6,10-18.9,13-19c1.5,0,1.9-11.9,2.2-24.5c0.5-15.5,1-33.1,3.7-38.4c4.8-9.7,15.3-24.1,24.3-24.3c6.1-0.1,18.5-1.6,27.6-2.7
		c3.9-0.5,7-0.8,8.7-1c0.5,0,1-0.1,1.5-0.1c6.1,0,17.5,2.5,23.5,8.1c6.5,6-15,54.5-15.9,56.5v0.1h-0.1c-0.2-0.1-19.4-7.9-26.4-7.9
		c-0.9,0-1.6,0.1-2,0.4c-2.1,1.3-6.2,12.2-10.1,22.8c-3.5,9.4-6.8,18.3-8.9,21.1C231.2,162.2,215.3,182.6,206,182.7z"/>
	<path class="st4" d="M206,182.1c-1.3,0-2.4-0.4-3.3-1.1c-1.4-1.2-2.9-2.2-4.6-3.4l-0.1-0.1l0.1-0.1c25.3-17.5,35.5-39,43.7-56.3
		c4.3-9.1,8.1-17,13.2-22.7c3.1-3.5,6.8-5.3,10.9-5.3c6.4,0,13.8,4.2,22.2,12.4l0.1,0.1v0.1c-3.4,8.6-6.4,15.2-6.4,15.3v0.1h-0.1
		c-0.2-0.1-19.4-7.9-26.4-7.9c-0.9,0-1.6,0.1-2,0.4c-2.1,1.3-6.2,12.2-10.1,22.8c-3.5,9.4-6.8,18.3-8.9,21.1
		C231.2,161.6,215.3,182.1,206,182.1z"/>
	<path class="st21" d="M183.9,187.6c-0.4,0-0.6-0.1-0.8-0.4c-0.2-0.4-0.1-1.2,0.3-2.3c0.5-1.5,1.6-3.5,3.2-6.2
		c2.3-3.8,4.9-7.4,4.9-7.5c0.1-0.1,1.1-0.4,2.2-0.4c0.3,0,0.5,0,0.8,0.1c0.7,0.1,1.2,0.4,1.5,0.9c0.4,0.6,0.5,1.6,0.3,2.8
		c-0.7,3.5-2.9,7.1-5.8,9.6c-1.7,1.5-3.7,2.6-5.7,3.1h-0.1C184.5,187.5,184.1,187.6,183.9,187.6L183.9,187.6z"/>
	<path class="st21" d="M188.4,190.4c-0.4,0-0.6-0.1-0.8-0.4c-0.2-0.4-0.1-1.2,0.3-2.3c0.7-1.8,2.1-4.5,4.3-7.9
		c1.9-3.1,3.8-5.7,3.8-5.7c0.1-0.1,1.1-0.4,2.2-0.4c0.3,0,0.5,0,0.8,0.1c0.7,0.1,1.2,0.4,1.6,0.9c0.4,0.6,0.5,1.6,0.3,2.8
		c-0.6,2.9-2.2,6-4.4,8.3c-2.1,2.2-4.5,3.7-7,4.3h-0.1C189,190.3,188.7,190.4,188.4,190.4L188.4,190.4z"/>
	<path class="st21" d="M194,191.5c-0.7,0-0.9-0.4-0.9-0.8c0-0.4,0.1-1.1,0.4-1.9c0.9-2.3,3-5.8,4.6-8.4c1.8-2.9,3.5-5.2,3.5-5.3
		c0.1-0.1,1-0.3,2-0.4h0.2c1,0,1.8,0.3,2.2,0.9c0.5,0.6,0.7,1.6,0.4,3c-0.6,2.8-2,5.7-4.1,8c-2.1,2.4-4.7,4-7.3,4.7
		C194.7,191.4,194.3,191.5,194,191.5L194,191.5z"/>
	<path class="st21" d="M200.2,192.7c-0.4,0-0.7-0.2-0.8-0.6c-0.1-0.4,0-1.2,0.3-2.2c0.5-1.3,1.3-2.9,2.5-5c2.4-4.1,5.5-8.5,5.5-8.6
		c0.1-0.1,1.1-0.4,2.2-0.4c0.1,0,0.2,0,0.4,0c0.9,0.1,1.5,0.4,1.9,0.9c0.5,0.6,0.6,1.6,0.3,2.9c-0.8,3.9-3.3,7.8-6.6,10.3
		c-1.5,1.2-3.1,2-4.8,2.4C200.8,192.6,200.5,192.7,200.2,192.7z"/>
</g>
</svg>
